<?xml version="1.0" standalone="no"?>
<!DOCTYPE svg PUBLIC "-//W3C//DTD SVG 20010904//EN"
 "http://www.w3.org/TR/2001/REC-SVG-20010904/DTD/svg10.dtd">
<svg version="1.0" xmlns="http://www.w3.org/2000/svg"
 width="1200.000000pt" height="1188.000000pt" viewBox="0 0 1200.000000 1188.000000"
 preserveAspectRatio="xMidYMid meet">

<g transform="translate(0.000000,1188.000000) scale(0.100000,-0.100000)"
fill="#000000" stroke="none">
<path d="M5715 11852 l-40 -7 4 -340 c2 -187 7 -344 11 -349 5 -5 15 -6 24 -3
13 5 14 29 9 166 l-6 161 67 0 c120 0 171 -41 207 -163 11 -40 26 -90 32 -112
10 -32 17 -41 39 -43 l26 -3 -18 63 c-63 217 -66 223 -119 260 l-24 17 24 10
c36 13 86 74 98 118 16 56 13 84 -11 133 -34 66 -86 92 -197 96 -47 1 -104 -1
-126 -4z m205 -48 c79 -32 110 -117 71 -196 -34 -72 -89 -94 -218 -90 l-53 2
0 144 0 145 28 4 c64 10 134 6 172 -9z"/>
<path d="M6386 11836 c-56 -21 -103 -72 -118 -128 -11 -42 -10 -53 8 -95 20
-49 31 -59 190 -158 61 -38 85 -72 91 -126 5 -49 -19 -95 -70 -133 -41 -31
-148 -30 -198 2 -45 27 -69 28 -69 2 0 -24 36 -44 108 -59 83 -17 125 -14 183
17 91 47 124 151 80 249 -21 46 -38 59 -150 118 -92 49 -121 86 -121 157 0 43
5 55 33 83 43 43 103 54 167 30 61 -23 84 -23 88 -3 8 42 -146 72 -222 44z"/>
<path d="M5215 11810 c-44 -11 -93 -20 -109 -20 l-29 0 8 -82 c10 -122 71
-598 77 -604 6 -5 115 6 266 28 69 9 82 14 82 30 0 22 -6 22 -135 3 -55 -8
-116 -15 -136 -15 l-37 0 -11 78 c-6 42 -14 109 -18 148 l-6 72 39 5 c22 3 66
9 99 12 75 8 135 23 135 34 0 19 -39 21 -153 5 -91 -12 -121 -13 -127 -4 -8
14 -35 248 -29 255 3 2 51 9 108 14 125 13 184 28 178 44 -6 19 -114 17 -202
-3z"/>
<path d="M6870 11786 c0 -15 -45 -304 -66 -431 -38 -218 -39 -238 -20 -254 9
-8 19 -11 23 -8 5 6 26 126 87 516 21 131 24 166 14 173 -14 8 -38 11 -38 4z"/>
<path d="M4843 11752 c-9 -5 -26 -121 -50 -335 -21 -180 -41 -327 -44 -327 -3
0 -21 28 -39 63 -55 103 -268 449 -306 495 -1 2 -12 1 -23 -3 -18 -5 -10 -23
96 -198 64 -106 152 -247 195 -314 71 -109 82 -122 99 -113 21 12 25 27 34
125 3 39 19 165 34 280 46 333 46 354 4 327z"/>
<path d="M7084 11745 c-10 -24 3 -31 86 -48 106 -22 133 -33 126 -55 -6 -18
-146 -613 -146 -620 0 -2 12 -2 27 0 26 3 27 7 74 213 55 245 95 404 103 413
4 3 49 -5 102 -18 86 -21 97 -21 111 -8 14 14 10 17 -38 31 -30 9 -132 34
-228 56 -96 22 -182 43 -192 46 -12 4 -21 1 -25 -10z"/>
<path d="M7744 11572 c3 -15 13 -72 21 -127 9 -55 25 -140 36 -188 25 -105 22
-131 -31 -247 -49 -107 -57 -139 -39 -151 28 -18 22 -28 88 153 l46 126 118
95 c112 90 227 193 227 203 0 2 -11 4 -25 4 -17 0 -52 -23 -104 -67 -107 -93
-217 -183 -224 -183 -3 0 -8 17 -11 38 -51 345 -53 356 -86 365 -19 5 -21 2
-16 -21z"/>
<path d="M4154 11572 c-8 -5 10 -75 57 -227 95 -310 140 -429 163 -433 15 -3
17 1 12 30 -14 72 -200 638 -210 638 -6 0 -16 -4 -22 -8z"/>
<path d="M3851 11470 c-12 -7 -4 -34 44 -152 32 -79 87 -205 121 -280 34 -76
60 -138 58 -138 -3 0 -64 42 -137 93 -225 159 -431 294 -457 300 -56 13 -54
-1 25 -194 87 -211 195 -449 204 -449 33 1 28 23 -39 183 -38 91 -92 216 -120
278 -28 62 -49 114 -46 116 2 2 33 -18 70 -45 69 -52 421 -291 484 -329 39
-24 82 -30 82 -12 0 30 -245 608 -268 631 -4 4 -14 3 -21 -2z"/>
<path d="M3125 11130 c-9 -14 30 -89 130 -250 98 -157 118 -201 118 -265 0
-124 -110 -216 -222 -185 -80 21 -135 88 -256 310 -85 156 -102 180 -126 180
-33 0 -22 -31 62 -176 181 -309 237 -367 354 -367 66 0 114 22 164 73 52 54
75 114 69 184 -5 64 -76 213 -186 391 -63 104 -91 131 -107 105z"/>
<path d="M8690 11116 c-97 -26 -186 -108 -243 -225 -29 -60 -32 -74 -32 -161
0 -79 4 -102 23 -137 32 -62 98 -120 162 -144 73 -28 184 -23 249 10 102 53
189 180 211 311 42 238 -140 409 -370 346z m208 -55 c123 -63 154 -238 71
-403 -60 -119 -153 -182 -269 -182 -116 0 -194 62 -226 180 -16 60 -16 67 1
126 39 141 126 259 216 291 58 22 151 16 207 -12z"/>
<path d="M9308 10674 c-46 -58 -138 -182 -205 -276 -95 -133 -120 -174 -112
-185 6 -7 15 -13 19 -13 4 0 49 56 99 125 51 68 96 127 102 130 5 4 49 -22 97
-58 105 -78 128 -91 137 -77 10 16 -11 37 -113 112 l-92 68 42 62 c24 33 62
82 86 109 l43 48 99 -74 c96 -71 135 -93 147 -81 3 3 0 13 -8 22 -15 18 -245
194 -253 194 -3 0 -42 -48 -88 -106z"/>
<path d="M2058 10389 c-10 -6 -18 -14 -18 -20 0 -10 313 -387 397 -479 l50
-54 120 97 c109 88 151 135 136 151 -12 12 -24 5 -115 -75 -139 -122 -134
-119 -166 -78 -15 19 -62 76 -104 127 -43 50 -113 134 -156 185 -42 50 -88
106 -102 124 -20 25 -28 30 -42 22z"/>
<path d="M10028 10160 c-47 -9 -84 -33 -109 -73 -29 -45 -20 -137 21 -242 24
-60 31 -89 27 -119 -11 -79 -77 -130 -160 -123 -63 5 -111 45 -157 129 -36 67
-60 78 -60 28 0 -34 73 -136 121 -171 48 -34 150 -39 207 -10 104 53 126 153
63 291 -55 120 -45 194 32 240 58 36 113 22 173 -42 18 -18 39 -48 48 -65 19
-38 46 -44 46 -10 0 38 -55 113 -102 140 -49 28 -97 37 -150 27z"/>
<path d="M1670 10015 c-11 -13 12 -67 151 -345 90 -182 166 -330 170 -330 4 0
12 7 20 16 11 13 4 32 -46 128 l-60 113 83 90 c45 50 88 96 97 103 12 10 36 3
131 -40 115 -51 117 -51 136 -33 18 19 15 20 -134 86 -84 36 -235 102 -335
147 -101 44 -187 80 -192 80 -5 0 -14 -7 -21 -15z m265 -142 c33 -14 73 -32
88 -40 l28 -14 -73 -79 c-40 -44 -78 -82 -85 -84 -7 -3 -43 58 -92 154 l-80
159 77 -35 c42 -20 104 -47 137 -61z"/>
<path d="M1420 9745 c-16 -20 -13 -30 73 -237 37 -87 62 -158 56 -158 -5 0
-76 11 -157 24 -236 39 -227 38 -246 17 -17 -18 -16 -19 11 -25 57 -12 349
-56 374 -56 28 0 108 -53 207 -136 68 -58 74 -61 91 -40 17 20 -12 51 -110
116 -107 70 -135 112 -189 282 -38 117 -83 228 -94 228 -2 0 -9 -7 -16 -15z"/>
<path d="M10275 9515 c-187 -63 -344 -117 -350 -119 -5 -2 -2 -12 7 -22 17
-17 22 -16 135 22 65 21 121 39 124 39 9 0 169 -203 169 -215 0 -5 -20 -40
-44 -77 -71 -111 -88 -149 -71 -163 16 -13 89 94 284 417 109 181 121 205 107
218 -8 8 -16 15 -18 15 -2 0 -156 -52 -343 -115z m299 43 c-5 -7 -30 -47 -57
-88 -27 -41 -65 -103 -84 -138 l-36 -64 -39 39 c-22 21 -57 63 -78 94 l-38 55
161 56 c185 63 181 62 171 46z"/>
<path d="M2697 9433 c-4 -3 -7 -1525 -7 -3382 0 -3686 -3 -3463 56 -3640 46
-139 121 -226 244 -285 l65 -31 1375 -5 1375 -5 45 -27 c45 -26 131 -110 143
-138 5 -12 10 -9 24 10 31 46 108 115 148 135 39 20 71 20 1380 25 1245 5
1344 7 1400 23 188 56 267 135 327 329 l23 73 3 3449 c2 2561 -1 3452 -9 3462
-10 12 -530 14 -3299 14 -1807 0 -3290 -3 -3293 -7z m6573 -3450 c0 -3754 4
-3495 -59 -3628 -52 -112 -117 -166 -251 -211 -52 -18 -125 -19 -1405 -24
l-1350 -5 -53 -29 c-29 -16 -74 -52 -100 -80 l-48 -51 -58 57 c-32 31 -79 67
-104 80 l-47 23 -1361 2 -1361 2 -57 22 c-78 29 -176 121 -216 203 -16 33 -40
97 -52 141 l-23 80 -2 3423 -3 3422 3275 0 3275 0 0 -3427z"/>
<path d="M2873 5938 c3 -3613 0 -3387 59 -3506 42 -85 145 -139 306 -162 48
-7 520 -10 1323 -10 1135 0 1252 -1 1282 -16 39 -20 137 -113 137 -131 0 -23
11 -15 71 51 97 106 -44 96 1356 96 775 0 1260 4 1313 10 303 37 382 132 392
470 2 63 2 1552 1 3308 l-3 3192 -3120 0 -3120 0 3 -3302z m6210 100 c1 -1745
1 -3225 0 -3288 -3 -119 -24 -254 -48 -299 -31 -60 -107 -108 -217 -138 -57
-16 -181 -18 -1363 -23 l-1300 -5 -35 -22 c-19 -12 -55 -42 -79 -67 l-45 -46
-57 56 c-32 30 -74 61 -93 69 -30 13 -211 15 -1293 15 -1260 0 -1330 2 -1434
36 -119 38 -166 93 -197 227 -15 66 -16 361 -19 3365 l-3 3292 3090 0 3090 0
3 -3172z"/>
<path d="M5932 9065 c-75 -86 -120 -203 -143 -382 l-12 -91 -51 38 c-99 75
-257 127 -357 117 -132 -12 -255 -131 -294 -285 -30 -115 8 -234 107 -338 53
-56 145 -130 153 -122 2 2 -2 28 -11 58 -8 30 -17 93 -20 140 -7 108 9 139 92
177 74 33 146 29 199 -11 55 -42 122 -140 147 -214 23 -67 23 -72 25 -722 l3
-655 -20 25 c-26 31 -68 111 -87 164 -8 23 -18 93 -22 156 -10 143 -32 192
-122 274 -64 57 -241 157 -255 143 -4 -4 16 -54 45 -111 69 -139 81 -195 58
-284 -26 -101 -47 -219 -47 -263 0 -55 30 -127 90 -214 29 -43 43 -72 33 -66
-10 5 -193 122 -408 260 -277 177 -393 247 -402 240 -9 -8 11 -46 76 -147 319
-496 409 -637 406 -640 -1 -2 -32 4 -69 12 -91 22 -169 64 -249 135 -115 103
-188 128 -327 110 -95 -12 -235 -58 -235 -78 0 -9 28 -22 76 -36 89 -25 195
-74 224 -102 11 -11 47 -64 80 -118 84 -138 152 -205 235 -232 l65 -21 -420
-1 c-484 -1 -562 5 -654 52 -102 51 -159 151 -148 260 5 60 30 95 87 125 53
26 101 28 242 7 55 -9 103 -14 105 -12 4 5 -81 79 -155 136 -24 19 -82 53
-128 77 -77 40 -91 44 -158 44 -64 0 -82 -5 -143 -35 -45 -23 -89 -55 -126
-93 -71 -76 -91 -136 -85 -261 5 -106 26 -156 96 -232 29 -31 52 -59 52 -62 0
-2 -28 -7 -62 -11 -171 -18 -313 -75 -405 -162 l-58 -55 46 -43 c89 -81 215
-131 397 -157 45 -6 82 -12 82 -14 0 -1 -14 -20 -31 -41 -108 -135 -149 -334
-94 -452 31 -67 108 -142 182 -179 51 -25 69 -28 153 -28 85 0 101 3 150 29
62 32 167 129 213 195 l30 44 -34 -7 c-193 -42 -259 -42 -308 0 -62 52 -84
179 -42 247 23 38 111 111 166 140 92 47 126 50 620 54 264 3 486 1 505 -4
l35 -9 -50 -37 c-114 -83 -209 -117 -326 -117 -141 0 -236 -51 -324 -174 -51
-72 -109 -191 -101 -205 3 -5 53 15 111 44 58 30 129 59 159 66 49 11 63 9
157 -15 57 -15 143 -30 190 -33 92 -6 87 -7 232 65 4 2 -97 -157 -223 -354
-154 -237 -228 -360 -221 -367 7 -7 146 78 417 252 224 144 409 259 412 256 9
-9 -28 -174 -52 -228 -12 -29 -53 -86 -90 -127 -118 -133 -145 -225 -112 -390
19 -93 56 -192 71 -192 6 0 18 26 28 59 60 192 91 242 182 295 156 91 227 152
261 223 l25 50 -4 -595 c-3 -538 -5 -600 -21 -649 -34 -103 -90 -162 -185
-196 -96 -34 -189 -4 -228 75 -27 53 -29 95 -7 237 8 58 13 107 11 110 -7 6
-109 -116 -158 -188 -22 -33 -54 -90 -71 -125 -28 -59 -30 -72 -26 -142 6 -99
46 -180 128 -256 76 -70 138 -90 258 -84 108 5 157 26 238 101 l61 57 7 -63
c18 -177 77 -326 164 -415 l53 -55 39 38 c78 76 135 220 160 403 l13 91 39
-33 c130 -112 335 -157 456 -101 68 32 141 105 178 180 26 54 29 70 29 155 0
89 -2 99 -34 158 -38 70 -114 153 -187 203 -46 31 -47 32 -40 8 18 -66 38
-220 32 -251 -14 -76 -91 -128 -190 -129 -46 -1 -62 4 -95 28 -82 61 -146 162
-169 268 -14 65 -27 1265 -15 1320 l9 40 51 -77 c67 -102 83 -150 93 -292 11
-154 35 -205 133 -287 69 -58 228 -146 246 -135 5 3 -15 53 -44 111 -30 58
-59 130 -66 160 -11 50 -10 64 15 167 16 61 30 146 33 188 5 69 3 84 -21 135
-14 32 -25 59 -24 61 2 1 160 -99 352 -223 312 -201 398 -248 370 -201 -5 7
-122 191 -262 408 -140 217 -257 401 -260 408 -4 11 5 12 44 7 135 -18 229
-60 319 -143 127 -116 218 -141 385 -108 91 19 191 55 193 71 1 6 -18 16 -43
23 -214 63 -260 92 -328 208 -84 142 -148 215 -212 242 l-55 22 460 -3 c457
-2 460 -3 520 -26 145 -57 222 -214 166 -338 -20 -44 -64 -74 -128 -87 -17 -4
-86 0 -152 9 -66 9 -126 15 -132 13 -14 -5 119 -114 214 -176 96 -62 167 -85
242 -79 115 9 248 97 303 201 25 47 27 60 27 166 0 105 -2 119 -27 165 -14 28
-47 74 -72 102 l-47 52 48 6 c95 13 222 44 273 66 58 25 149 92 182 134 l22
28 -45 39 c-89 78 -220 128 -396 150 l-91 12 34 40 c72 84 124 228 124 341 0
152 -136 296 -307 326 -120 21 -229 -24 -343 -141 -72 -73 -116 -138 -86 -127
47 18 185 39 237 35 45 -3 65 -10 85 -29 59 -54 84 -171 51 -235 -22 -42 -110
-120 -170 -151 -97 -49 -144 -53 -660 -53 -345 0 -476 3 -471 11 14 23 128 89
187 108 34 10 105 22 158 25 53 4 117 13 144 22 90 31 204 163 269 312 11 23
16 45 13 48 -3 3 -57 -19 -120 -51 -134 -66 -198 -78 -288 -52 -86 25 -250 49
-288 42 -38 -7 -119 -45 -164 -77 -16 -11 -30 -19 -32 -16 -2 2 104 172 236
377 131 206 239 381 239 389 0 9 -7 12 -17 9 -10 -2 -187 -113 -393 -245 -206
-132 -376 -240 -377 -238 -1 1 4 32 12 68 20 97 57 167 132 250 107 118 134
199 113 341 -14 99 -60 232 -79 232 -8 0 -22 -31 -36 -80 -51 -173 -85 -227
-181 -281 -37 -20 -102 -64 -146 -96 -91 -68 -116 -109 -148 -250 l-18 -83 -1
665 c-1 793 0 797 96 894 96 98 253 107 322 20 39 -50 45 -97 27 -230 -9 -67
-16 -129 -16 -139 0 -21 107 106 171 203 99 151 112 250 51 374 -41 83 -128
171 -191 193 -73 25 -167 30 -240 11 -71 -18 -104 -38 -173 -105 -45 -43 -48
-44 -48 -21 0 60 -50 262 -79 323 -32 68 -123 177 -146 177 -7 0 -31 -20 -53
-45z m-39 -1800 l-88 -399 -5 609 c-5 594 -6 612 -27 675 -53 156 -175 280
-276 280 -61 0 -133 -28 -175 -69 -49 -48 -59 -92 -43 -205 6 -42 11 -83 11
-89 0 -27 -133 121 -163 183 -63 127 -36 273 70 378 26 26 66 56 88 67 116 55
320 7 449 -107 24 -21 47 -38 50 -38 9 0 24 68 36 159 20 146 67 267 134 339
l21 24 3 -704 2 -703 -87 -400z m87 -134 l0 -388 -86 -7 c-48 -3 -88 -5 -90
-4 -3 4 169 788 173 788 2 0 3 -175 3 -389z m206 -398 c-1 -1 -41 0 -89 4
l-87 6 1 391 1 391 88 -395 c48 -217 87 -396 86 -397z m-746 687 c67 -46 126
-109 148 -159 8 -20 19 -84 23 -143 10 -157 40 -232 145 -376 9 -12 15 -24 13
-25 -2 -2 -35 -13 -74 -25 l-70 -22 -17 23 c-35 45 -98 184 -110 241 -9 46 -9
81 0 155 7 53 12 112 12 132 0 42 -39 107 -118 198 -60 68 -52 69 48 1z m-24
-72 c71 -92 75 -105 59 -235 -21 -163 2 -260 89 -397 21 -32 36 -59 34 -60 -2
-1 -26 -14 -55 -29 l-52 -28 -45 64 c-61 85 -96 163 -96 213 0 48 24 184 47
263 20 69 13 130 -26 221 -33 80 -23 78 45 -12z m1374 -43 c21 -139 -2 -209
-107 -326 -36 -40 -79 -100 -95 -134 -28 -61 -57 -175 -58 -226 l0 -26 -70 36
c-40 21 -70 43 -70 51 0 32 42 164 69 218 35 68 72 109 166 183 39 31 75 62
81 70 20 26 34 80 40 163 10 139 22 137 44 -9z m-64 53 c-12 -99 -27 -173 -39
-188 -7 -9 -43 -41 -82 -71 -131 -104 -185 -185 -224 -334 -12 -43 -22 -79
-24 -81 -1 -1 -28 5 -59 14 l-56 17 5 35 c9 67 36 165 55 208 22 47 98 108
230 187 90 54 124 93 165 196 15 38 30 69 31 69 2 0 1 -24 -2 -52z m232 -605
l-277 -277 -58 46 c-32 25 -59 54 -61 64 -2 15 70 65 330 231 183 117 335 213
338 213 3 0 -120 -125 -272 -277z m-1844 22 l327 -209 -28 -21 c-15 -11 -46
-36 -69 -57 l-40 -37 -275 276 c-151 151 -267 271 -258 267 9 -5 163 -103 343
-219z m1920 -112 c-119 -186 -217 -339 -219 -341 -1 -1 -27 28 -58 65 l-55 68
271 273 c150 149 273 272 274 272 1 0 -95 -152 -213 -337z m-1799 -292 c-26
-34 -55 -61 -64 -61 -13 0 -258 368 -424 639 -20 31 60 -42 254 -235 l282
-282 -48 -61z m880 338 c318 -39 596 -234 740 -519 136 -270 133 -597 -10
-867 -128 -242 -339 -410 -602 -480 -82 -21 -120 -26 -233 -26 -90 0 -159 5
-207 16 -296 67 -554 278 -670 548 -153 354 -85 752 176 1031 91 97 170 155
292 212 172 81 330 107 514 85z m2275 -65 c65 -19 92 -35 148 -88 65 -61 92
-121 92 -203 0 -122 -46 -243 -125 -331 -55 -61 -50 -67 61 -83 190 -26 313
-69 394 -139 l35 -29 -540 -1 -540 0 -405 87 -405 88 445 5 c423 5 448 7 510
27 113 38 222 119 261 195 40 79 11 211 -60 270 -40 34 -96 42 -195 29 -44 -6
-81 -9 -84 -7 -8 9 90 105 139 137 91 58 173 72 269 43z m-3725 -123 c23 -10
75 -48 116 -85 41 -37 102 -81 137 -97 61 -30 171 -58 224 -59 l26 0 -36 -70
c-20 -38 -42 -70 -50 -70 -30 0 -138 33 -197 59 -76 35 -130 83 -207 183 -52
69 -64 79 -111 93 -28 9 -95 19 -147 22 -90 6 -93 7 -63 19 85 36 234 38 308
5z m-150 -62 c33 -6 68 -15 77 -20 10 -5 44 -44 77 -87 68 -90 114 -133 174
-163 48 -25 173 -69 196 -69 38 -1 43 -14 26 -74 l-17 -57 -36 7 c-82 13 -194
48 -225 68 -40 27 -122 135 -173 228 -44 81 -88 116 -198 159 l-71 28 55 -5
c30 -3 82 -10 115 -15z m3168 -80 c-15 -28 -54 -79 -85 -113 -77 -85 -121
-103 -277 -115 -107 -8 -129 -13 -193 -43 -40 -19 -95 -52 -121 -72 -27 -21
-50 -36 -51 -34 -2 2 -13 34 -25 73 l-22 70 23 19 c40 33 181 95 239 106 42 8
85 7 170 -4 107 -13 117 -13 157 5 43 18 149 97 186 138 30 33 29 25 -1 -30z
m-373 5 c142 -34 179 -31 305 20 l40 17 -50 -45 c-27 -25 -72 -57 -98 -71 -47
-26 -49 -27 -137 -15 -49 7 -124 11 -168 8 -68 -4 -93 -11 -167 -46 -48 -23
-99 -51 -114 -61 l-27 -20 -27 55 c-15 30 -27 56 -27 58 0 9 159 107 195 121
51 19 139 12 275 -21z m-2274 -479 c-3 -25 -9 -65 -12 -90 l-5 -45 -387 1
c-213 1 -380 3 -372 6 19 5 762 171 773 172 5 1 6 -19 3 -44z m2346 -46 l388
-84 -392 -3 c-215 -1 -392 -1 -393 0 -1 2 -5 43 -9 92 -5 69 -4 87 6 83 7 -2
187 -42 400 -88z m-3290 -108 c2 -4 163 -43 358 -85 195 -42 364 -81 375 -86
12 -5 -146 -9 -390 -9 -437 -1 -486 -6 -578 -52 -66 -34 -145 -100 -178 -149
-29 -42 -30 -50 -26 -116 5 -84 39 -153 90 -185 35 -21 143 -26 225 -10 23 5
42 5 42 1 0 -21 -128 -133 -185 -161 -106 -52 -223 -41 -331 32 -89 60 -136
146 -135 247 1 113 44 226 126 326 48 59 54 72 30 62 -8 -3 -15 -1 -15 4 0 6
-15 10 -32 10 -47 0 -193 27 -253 46 -72 23 -158 71 -191 105 l-28 29 546 0
c301 0 548 -4 550 -9z m932 -33 c3 -13 8 -53 11 -90 l6 -66 -88 19 c-48 10
-227 50 -398 88 l-310 69 387 1 388 1 4 -22z m2731 17 c-21 -8 -757 -165 -775
-165 -15 0 -16 5 -9 43 4 23 8 61 9 85 l0 42 393 -1 c215 0 388 -2 382 -4z
m-629 -226 c33 -10 76 -29 95 -42 29 -19 118 -142 194 -268 23 -38 84 -79 171
-114 56 -23 57 -25 24 -24 -65 0 -192 27 -212 46 -11 10 -49 55 -84 99 -37 49
-85 96 -118 118 -50 33 -213 96 -250 96 -19 0 -20 14 -5 61 6 19 13 40 15 47
5 17 80 9 170 -19z m-2046 -72 c28 -78 32 -71 -82 -132 -142 -75 -212 -87
-387 -64 -112 15 -115 14 -303 -139 l-29 -24 32 54 c52 88 115 154 174 184 45
21 77 28 168 35 148 10 255 51 352 133 22 19 43 31 46 28 3 -4 17 -37 29 -75z
m1920 -58 c154 -42 212 -85 342 -249 52 -65 78 -76 228 -93 l105 -11 -75 -18
c-100 -25 -209 -21 -270 10 -25 12 -79 52 -120 88 -94 84 -221 143 -310 144
-51 1 -54 12 -19 83 19 37 36 67 39 67 3 0 39 -9 80 -21z m-1856 -84 c14 -25
23 -52 20 -59 -8 -21 -165 -119 -219 -138 -45 -15 -59 -15 -143 -2 -51 7 -129
23 -173 35 -90 25 -138 20 -238 -26 -30 -14 -55 -24 -57 -22 -6 6 96 86 145
115 l43 25 124 -13 c68 -7 142 -10 165 -6 55 9 169 57 239 100 30 19 58 35 62
35 3 1 18 -19 32 -44z m101 -149 l47 -59 -282 -281 c-175 -174 -274 -266 -259
-241 55 93 393 612 412 633 11 12 24 19 28 15 4 -5 28 -34 54 -67z m1745 -231
c95 -148 193 -301 218 -340 40 -65 23 -49 -236 209 l-280 279 57 67 c31 38 59
65 62 62 4 -4 84 -128 179 -277z m-1636 117 c22 -20 54 -46 69 -58 l29 -20
-345 -222 c-190 -122 -349 -222 -354 -222 -4 0 118 126 272 280 154 154 282
280 284 280 2 0 22 -17 45 -38z m1601 -273 c237 -238 271 -275 220 -244 -289
182 -594 382 -612 403 l-21 25 61 48 c34 27 64 49 67 49 3 0 131 -127 285
-281z m-1326 94 c8 -6 -22 -120 -51 -190 -41 -100 -74 -141 -177 -222 -105
-83 -115 -102 -131 -252 -6 -57 -13 -105 -14 -107 -10 -9 -31 136 -31 208 0
103 15 136 111 247 83 95 122 177 142 298 l15 93 66 -36 c36 -19 68 -37 70
-39z m973 -46 c42 -71 43 -73 42 -162 0 -64 -8 -121 -28 -199 -32 -125 -31
-149 14 -265 l29 -76 -30 35 c-59 68 -109 152 -109 184 0 17 5 76 11 131 9 76
9 113 0 156 -12 59 -66 180 -102 231 -12 16 -20 30 -18 31 2 1 27 14 54 29
l50 28 22 -25 c12 -14 42 -58 65 -98z m-155 -55 c62 -124 71 -175 53 -323 -7
-58 -9 -119 -6 -135 6 -26 53 -95 133 -193 l28 -35 -43 24 c-84 47 -155 113
-185 172 -24 47 -30 74 -38 169 -11 147 -38 224 -116 331 -25 35 -31 49 -21
53 73 27 125 43 133 41 6 -1 33 -48 62 -104z m-727 74 l45 -14 -2 -58 c-1 -33
-13 -96 -27 -141 -23 -72 -33 -87 -76 -125 -28 -24 -98 -74 -157 -111 -117
-72 -137 -94 -183 -203 -16 -38 -30 -59 -30 -47 0 47 22 179 36 204 7 15 52
57 98 93 47 37 96 81 110 99 46 61 85 154 116 275 12 48 9 46 70 28z m216 -36
l44 0 -1 -397 0 -398 -84 385 c-47 212 -86 393 -89 404 -4 17 0 18 41 12 25
-3 65 -6 89 -6z m234 -72 c-10 -45 -49 -224 -87 -397 l-68 -316 -3 384 c-1
211 0 387 4 390 3 3 36 9 72 12 37 3 74 7 83 7 15 2 15 -5 -1 -80z m37 -1335
c11 -35 35 -85 53 -113 45 -70 133 -148 176 -156 92 -17 208 27 247 93 20 36
25 155 8 226 -6 24 -5 37 1 37 23 0 128 -122 158 -184 28 -55 33 -77 32 -134
-1 -131 -76 -253 -189 -308 -47 -23 -69 -28 -122 -26 -118 3 -245 54 -329 132
-44 41 -69 52 -59 25 4 -8 2 -17 -2 -19 -5 -3 -11 -37 -15 -75 -16 -157 -65
-297 -135 -384 l-30 -39 -3 239 c-8 623 -8 1136 1 1147 5 6 46 179 90 384 45
205 82 376 83 380 1 4 5 -256 8 -578 5 -564 6 -587 27 -647z"/>
<path d="M6304 6170 c-98 -14 -194 -74 -220 -136 -19 -46 -34 -230 -34 -431 0
-166 -1 -172 -22 -187 -27 -19 -68 -21 -90 -3 -14 10 -17 47 -21 267 -3 200
-8 268 -21 315 -34 117 -126 175 -280 175 -56 0 -101 -6 -140 -20 -73 -25
-178 -80 -174 -92 5 -13 6 -12 100 31 108 50 174 65 251 57 74 -8 159 -47 186
-84 36 -52 51 -164 51 -392 l0 -210 -24 15 c-13 9 -27 12 -30 7 -7 -11 77 -90
111 -103 34 -13 87 -2 110 23 26 29 70 51 75 36 8 -23 98 42 98 71 0 31 -84
136 -100 126 -6 -4 6 -27 30 -57 22 -28 40 -58 40 -67 0 -9 -13 -25 -30 -34
-19 -12 -30 -14 -30 -6 0 6 -7 8 -15 5 -52 -21 -48 -40 -42 230 3 143 10 266
17 289 32 110 183 174 344 146 75 -13 163 -49 212 -86 29 -22 44 -24 44 -4 0
4 -26 24 -57 44 -97 60 -233 91 -339 75z"/>
<path d="M5494 6082 c-43 -21 -114 -78 -114 -93 0 -16 26 -9 45 11 19 20 19
20 49 -9 44 -41 68 -51 121 -51 56 0 96 19 126 61 l22 32 22 -25 c13 -16 27
-23 34 -18 17 10 -35 61 -86 85 -57 27 -168 31 -219 7z m26 -32 c0 -24 41 -50
78 -50 40 0 63 13 78 42 7 12 14 14 24 8 12 -8 12 -13 -6 -37 -45 -61 -141
-64 -198 -6 -26 25 -26 28 -10 40 21 16 34 17 34 3z"/>
<path d="M6289 6085 c-55 -18 -126 -76 -115 -94 6 -9 14 -7 32 10 l23 22 40
-36 c22 -20 53 -39 68 -43 16 -3 33 -7 40 -9 24 -8 86 18 122 51 38 33 38 34
56 14 10 -11 25 -20 34 -20 22 0 -46 68 -94 92 -51 26 -146 32 -206 13z m21
-35 c0 -5 9 -19 20 -30 30 -30 94 -27 124 5 15 16 29 23 40 19 15 -6 14 -10
-10 -36 -57 -58 -140 -59 -198 -1 -31 30 -32 40 -8 46 29 8 32 7 32 -3z"/>
<path d="M5828 5620 c-14 -10 -35 -39 -48 -64 -22 -40 -23 -47 -10 -71 15 -28
47 -51 58 -41 3 3 -5 17 -18 30 -29 32 -22 63 26 115 37 42 32 63 -8 31z"/>
<path d="M5830 5308 c-30 -12 -86 -24 -125 -27 l-70 -6 47 -19 c40 -16 62 -17
138 -12 63 5 107 4 141 -5 43 -11 56 -11 102 5 47 16 63 17 129 6 71 -10 80
-10 117 10 23 11 41 22 41 25 0 3 -26 2 -57 -1 -47 -5 -70 -1 -121 18 -56 22
-70 24 -120 15 -38 -7 -71 -6 -105 2 -60 14 -51 14 -117 -11z"/>
<path d="M6175 5199 c-86 -25 -194 -31 -296 -15 -56 9 -104 14 -106 12 -2 -2
22 -14 54 -27 48 -19 77 -23 168 -24 99 0 116 3 168 27 73 34 79 47 12 27z"/>
<path d="M7940 8764 c-25 -79 -47 -100 -115 -110 -41 -7 -85 -25 -85 -35 0 -5
-11 -9 -24 -9 -35 0 -84 -20 -90 -36 -3 -9 -1 -24 4 -34 5 -10 11 -40 12 -66
2 -65 32 -116 67 -114 63 4 69 -4 7 -9 -76 -7 -92 -20 -49 -40 24 -12 25 -14
10 -20 -10 -4 -40 -4 -68 -1 l-50 5 -38 87 c-21 48 -44 110 -51 139 -17 70
-40 92 -88 83 -34 -6 -102 -57 -102 -77 0 -5 -7 -15 -15 -23 -19 -19 -19 -44
-2 -68 11 -16 17 -17 36 -6 26 14 51 7 51 -14 0 -9 -6 -13 -14 -10 -8 3 -17 0
-21 -7 -5 -7 7 -24 33 -45 36 -31 92 -110 92 -131 0 -5 -12 -16 -27 -25 l-27
-16 49 -15 50 -16 -58 0 c-45 -1 -65 4 -87 21 -42 31 -78 17 -109 -43 l-24
-45 30 -55 c25 -47 34 -54 62 -57 30 -3 33 -1 28 17 -5 19 -1 21 42 21 35 0
53 -5 66 -20 10 -11 23 -16 29 -12 6 3 50 5 98 3 80 -2 93 -6 149 -39 l61 -36
-72 -14 c-119 -21 -181 -65 -231 -164 -28 -54 -60 -148 -51 -148 4 0 18 9 32
20 14 11 28 20 31 20 3 0 4 -26 1 -57 -2 -34 3 -78 11 -105 l15 -48 -84 0
c-92 0 -107 -7 -139 -69 l-16 -31 30 0 c26 0 30 -4 33 -32 3 -29 7 -33 33 -34
17 -1 38 -4 47 -9 13 -5 21 0 30 20 l12 27 133 -4 c93 -2 133 0 133 7 0 7 -18
53 -40 104 -51 117 -52 142 -5 107 28 -20 46 -10 34 21 -14 37 -11 73 5 73 8
0 18 -4 21 -10 9 -14 25 -13 30 3 45 130 58 147 122 161 l31 7 -24 -78 c-29
-95 -30 -153 -4 -208 27 -56 65 -90 128 -114 73 -29 83 -28 76 8 -6 29 -6 29
49 36 74 9 78 7 60 -36 -12 -32 -19 -37 -56 -42 -44 -6 -67 -27 -67 -63 0 -30
27 -56 50 -49 11 3 28 0 39 -7 17 -10 25 -10 41 0 15 9 25 9 44 1 47 -22 59
-6 53 64 l-6 62 59 60 c74 75 85 99 70 154 -10 39 -13 41 -48 41 -20 0 -84
-11 -142 -25 -58 -14 -113 -27 -122 -29 -16 -4 -16 -1 0 43 15 41 24 50 85 81
79 41 133 92 151 143 8 23 28 48 54 67 59 42 68 66 54 138 -7 31 -17 92 -23
135 l-12 78 56 52 c65 60 106 139 114 221 8 74 -2 108 -28 104 -16 -2 -24 5
-34 35 -7 20 -19 45 -26 54 -24 28 -113 95 -116 87 -1 -5 8 -44 20 -87 13 -43
21 -93 19 -112 -4 -32 -5 -33 -26 -21 -20 13 -86 29 -86 22 0 -2 7 -20 15 -39
21 -51 19 -82 -11 -133 -29 -49 -27 -77 8 -124 15 -21 25 -63 39 -166 23 -174
24 -161 -7 -177 -25 -13 -28 -12 -67 31 -25 26 -72 59 -119 83 -89 45 -128 91
-128 151 0 36 1 37 33 31 44 -7 88 26 68 51 -12 14 -9 16 23 16 21 0 46 5 57
11 20 10 19 12 -13 44 -26 27 -34 45 -39 87 -3 29 -9 60 -13 69 -5 13 7 22 56
43 l63 27 -65 29 c-64 28 -65 30 -65 67 0 21 4 53 8 72 6 29 5 32 -11 26 -9
-3 -41 -11 -71 -17 -53 -11 -55 -11 -78 16 -12 15 -23 36 -23 46 0 45 -18 24
-40 -46z m60 -35 c26 -20 34 -21 80 -12 l50 10 -6 -33 c-10 -56 2 -83 49 -104
l41 -19 -47 -20 -47 -20 -88 61 c-48 34 -88 63 -90 64 -4 2 20 94 25 94 2 0
17 -10 33 -21z m514 -131 c3 -17 6 -51 6 -77 l0 -46 26 30 25 30 -5 -54 c-8
-79 -47 -152 -113 -208 l-55 -47 7 -71 c3 -38 13 -96 21 -129 23 -88 18 -104
-46 -149 -44 -31 -54 -43 -52 -62 5 -35 -58 -98 -138 -139 -70 -36 -102 -77
-115 -148 -9 -46 -15 -46 145 -8 154 37 176 37 184 8 11 -41 7 -48 -65 -124
l-71 -75 7 -56 7 -55 -31 18 c-30 18 -31 18 -46 -1 -15 -20 -15 -20 -35 4 -20
23 -21 23 -40 6 -19 -17 -20 -17 -20 2 0 29 19 41 70 45 36 2 44 6 42 20 -1
10 9 40 23 68 l25 50 -37 0 c-21 0 -68 -3 -105 -7 -63 -5 -68 -8 -68 -29 0
-28 -10 -30 -53 -8 -45 23 -66 44 -88 86 -28 54 -24 113 16 227 19 55 35 114
35 131 0 46 -36 73 -125 94 -79 19 -163 59 -172 82 -3 7 15 49 38 93 30 55 40
84 33 91 -7 7 -26 -20 -59 -85 l-50 -95 -93 2 c-60 2 -97 7 -104 15 -7 8 -36
13 -79 13 -65 0 -69 -1 -70 -22 0 -23 -1 -22 -12 2 -6 14 -17 31 -24 38 -17
18 -16 28 4 63 23 39 42 44 76 18 27 -20 38 -21 152 -17 131 4 148 10 160 56
8 35 47 92 62 92 6 0 24 5 40 11 l28 11 -25 13 -25 14 31 1 c32 0 78 34 71 53
-2 7 -32 14 -67 17 -38 3 -65 10 -68 18 -2 7 5 12 18 12 29 0 60 18 60 34 0 7
-9 21 -21 31 -17 16 -25 17 -50 8 -26 -10 -29 -9 -29 9 0 10 -5 28 -10 38 -13
24 13 40 64 40 22 0 36 5 36 13 0 6 9 -3 20 -20 20 -33 42 -41 68 -24 24 15 9
45 -27 57 -34 11 -34 11 -8 16 15 3 27 1 27 -4 0 -5 14 1 31 13 21 15 36 19
44 13 7 -5 57 -40 112 -78 54 -38 104 -76 111 -84 6 -9 12 -37 12 -63 0 -26 4
-51 10 -54 5 -3 15 -16 21 -27 11 -20 9 -21 -29 -15 -44 8 -60 -9 -42 -43 13
-25 -2 -33 -34 -19 -20 9 -29 9 -41 -1 -13 -11 -23 -11 -56 0 -30 10 -45 11
-58 3 -13 -8 -24 -7 -42 3 -31 17 -39 17 -39 1 0 -7 21 -23 47 -36 42 -20 48
-21 58 -7 9 11 19 13 41 7 24 -6 30 -14 35 -47 11 -82 49 -124 162 -179 34
-17 77 -50 103 -78 43 -48 45 -49 75 -37 57 24 62 42 44 181 -18 144 -30 194
-56 228 -25 31 -24 44 7 91 22 34 26 48 22 90 -4 35 -2 50 6 47 6 -2 12 -22
14 -44 5 -65 29 -63 48 4 16 55 16 150 -1 198 -4 13 6 6 28 -18 19 -21 37 -52
41 -69z m-1096 -30 c5 -7 20 -44 32 -83 12 -38 38 -104 58 -145 l37 -75 52 -3
53 -3 -15 -29 c-8 -16 -15 -35 -15 -43 0 -34 -26 -38 -94 -16 -55 18 -65 25
-61 40 7 22 -27 94 -63 132 -20 21 -26 36 -24 62 4 41 -30 70 -72 59 -16 -4
-26 -2 -26 5 0 15 39 34 56 27 19 -7 18 8 -2 25 -15 12 -15 14 5 19 12 3 22 9
21 14 -2 10 20 26 36 26 6 0 16 -6 22 -12z m317 -108 c4 -6 -5 -10 -20 -10
-15 0 -24 4 -20 10 3 6 12 10 20 10 8 0 17 -4 20 -10z m169 -580 c31 -12 46
-38 39 -72 -4 -22 -12 -27 -48 -33 -66 -9 -107 -42 -130 -103 -14 -36 -26 -52
-38 -52 -35 0 -57 -20 -57 -50 0 -22 -5 -30 -18 -30 -23 0 -42 -19 -42 -43 0
-10 16 -55 35 -100 19 -44 35 -83 35 -86 0 -3 -53 -4 -117 -3 -104 3 -118 2
-130 -15 -18 -24 -73 -25 -73 -1 0 27 -11 48 -26 48 -12 0 -12 4 -4 20 10 18
21 20 116 20 86 0 105 3 101 14 -3 7 -15 43 -26 80 -20 66 -20 66 -1 142 11
43 20 79 20 81 0 2 -16 -8 -35 -23 -44 -33 -45 -17 -6 52 56 96 100 122 261
149 96 16 113 17 144 5z"/>
<path d="M4150 8806 c0 -19 -6 -25 -27 -28 -34 -4 -33 -22 2 -26 21 -3 25 -9
25 -35 0 -24 -6 -35 -22 -42 -13 -6 -27 -24 -32 -43 -7 -27 -16 -34 -50 -42
-107 -28 -219 -87 -280 -149 l-47 -48 -37 18 c-22 12 -57 19 -90 19 -54 0 -54
0 -40 -22 75 -115 110 -191 129 -279 35 -161 38 -144 -19 -144 -38 0 -57 -6
-85 -28 -46 -35 -47 -47 -2 -47 50 0 94 -26 110 -64 12 -28 65 -225 65 -240 0
-3 -6 -6 -14 -6 -7 0 -25 -9 -40 -21 l-26 -20 22 -42 c12 -23 40 -87 63 -142
33 -78 49 -105 75 -123 62 -41 176 -62 350 -61 141 0 251 18 329 55 l60 28 12
64 c6 35 29 99 50 142 l38 79 -26 21 c-14 11 -32 20 -39 20 -17 0 -17 -7 0 82
24 124 47 162 129 214 20 13 37 31 37 38 0 23 -80 49 -113 37 -24 -10 -27 -8
-27 12 0 48 42 224 65 272 14 28 45 77 69 109 25 33 43 63 40 68 -16 26 -131
-11 -153 -49 -10 -16 -15 -13 -47 25 -73 86 -242 181 -324 182 -20 0 -29 9
-42 41 -10 24 -26 43 -38 46 -15 4 -20 14 -20 39 0 30 3 34 25 34 16 0 25 6
25 15 0 9 -9 15 -25 15 -20 0 -25 5 -25 25 0 16 -6 25 -15 25 -9 0 -15 -9 -15
-24z m50 -166 c11 -11 20 -31 20 -45 0 -14 3 -25 8 -25 4 0 37 -7 75 -15 85
-18 169 -62 237 -125 l53 -49 -24 -29 -24 -29 -27 21 c-21 16 -26 27 -22 48
13 66 -58 96 -94 41 -12 -21 -24 -27 -42 -25 -14 2 -34 -4 -45 -12 -17 -12
-18 -18 -7 -33 30 -44 35 -62 22 -78 -18 -21 -54 -19 -76 6 -18 20 -18 21 5
38 30 23 27 81 -6 96 -15 6 -23 18 -23 34 0 37 -28 61 -70 61 -41 0 -60 -14
-60 -46 0 -12 -11 -29 -26 -38 -21 -14 -25 -24 -22 -54 2 -31 9 -40 36 -54
l34 -16 -21 -21 c-36 -36 -111 -22 -111 21 0 12 12 32 28 44 22 19 25 26 16
41 -6 10 -25 19 -43 21 -19 2 -31 9 -31 17 0 8 -10 21 -23 30 -24 16 -74 8
-103 -16 -17 -14 -18 -61 -2 -77 8 -8 5 -16 -13 -31 -20 -16 -26 -17 -39 -6
-8 7 -24 15 -35 17 -33 7 90 123 168 158 79 36 174 63 193 56 10 -4 14 3 14
29 0 59 42 83 80 45z m-11 -149 c9 -6 14 -24 13 -45 -1 -29 2 -36 18 -36 21 0
45 -34 35 -50 -3 -6 -17 -10 -30 -10 -22 0 -23 -2 -14 -32 11 -40 52 -78 83
-78 32 0 76 37 76 64 0 13 -9 31 -20 41 -11 10 -20 22 -20 27 0 11 41 10 60
-2 12 -7 17 -2 26 23 7 21 18 33 32 35 25 4 29 -18 13 -62 -9 -22 -7 -25 20
-31 39 -9 37 -28 -5 -47 -60 -29 -51 -95 15 -112 79 -19 130 26 96 86 -21 37
-21 52 -1 73 11 11 25 14 45 10 22 -5 31 -2 43 18 16 23 55 47 77 47 6 0 -5
-22 -25 -49 -49 -66 -83 -143 -97 -222 l-13 -65 -42 23 c-77 43 -170 57 -384
57 -216 0 -338 -17 -422 -59 l-46 -23 -12 64 c-13 66 -48 149 -94 222 l-26 42
25 0 c14 0 39 -7 55 -15 25 -13 30 -22 30 -50 0 -34 12 -46 25 -25 7 12 45 14
45 3 -1 -5 -7 -19 -15 -33 -33 -59 -7 -110 56 -110 29 0 43 6 63 31 34 41 33
56 -9 80 -19 12 -35 25 -35 29 0 10 26 20 51 20 23 0 25 18 4 27 -9 3 -22 18
-30 33 -17 33 -4 50 42 53 24 2 28 -2 31 -27 3 -26 6 -28 38 -23 39 7 54 -7
25 -22 -62 -34 -18 -131 59 -131 33 0 75 26 88 55 19 42 15 55 -17 55 -36 0
-59 25 -44 48 6 10 22 17 37 17 28 -1 29 0 17 30 -17 40 21 69 58 46z m-319
-251 c0 -22 -42 -52 -63 -46 -12 3 -25 6 -28 6 -16 0 -18 34 -4 60 l15 28 40
-19 c22 -11 40 -24 40 -29z m692 16 c17 -38 4 -56 -40 -56 -66 0 -85 41 -29
65 45 20 56 18 69 -9z m-87 -150 c33 -10 73 -25 90 -35 27 -16 30 -22 33 -77
1 -32 -1 -64 -5 -70 -8 -12 -41 -17 -100 -15 -30 1 -33 4 -33 34 0 40 -15 57
-51 57 -32 0 -59 -23 -59 -51 0 -30 -28 -23 -32 9 -2 19 -12 31 -35 41 -18 8
-33 20 -33 26 0 7 -10 25 -22 40 -19 24 -26 27 -65 22 -50 -5 -83 -30 -83 -61
0 -12 -9 -25 -22 -31 -12 -6 -25 -20 -28 -33 -6 -30 -19 -30 -34 0 -7 14 -26
27 -50 32 -34 9 -40 8 -57 -15 -10 -13 -19 -31 -19 -40 0 -26 -38 -55 -52 -41
-7 7 -25 12 -40 12 -30 0 -32 6 -42 88 -4 40 -2 45 27 63 82 51 213 69 462 64
137 -2 207 -8 250 -19z m-267 -58 c7 -7 12 -24 12 -39 0 -24 5 -28 33 -31 26
-2 33 -8 35 -30 3 -24 -1 -27 -30 -30 -27 -2 -34 -8 -36 -30 -4 -33 31 -68 70
-68 29 0 48 23 48 61 0 17 4 20 20 16 18 -5 20 -1 18 31 -3 35 -1 37 27 37 25
0 29 -4 26 -20 -8 -43 -5 -49 22 -55 l29 -5 -26 -24 c-45 -42 -26 -101 32
-101 61 0 90 50 56 98 -15 22 -14 22 24 22 31 0 43 5 56 25 22 34 55 48 85 37
22 -8 22 -9 -22 -43 -52 -39 -93 -106 -103 -167 -4 -23 -8 -42 -9 -42 -1 0
-18 6 -36 14 -87 36 -353 61 -506 46 -88 -8 -182 -32 -254 -64 -13 -6 -19 5
-33 61 -29 112 -49 149 -97 173 -36 19 -40 24 -26 32 33 18 71 5 87 -29 12
-27 21 -33 48 -33 35 0 38 -9 21 -59 -13 -36 -1 -57 39 -72 35 -14 59 -3 71
33 9 24 8 37 -4 61 -20 39 -19 40 9 33 32 -8 41 7 16 29 -17 16 -18 19 -4 40
13 20 18 22 44 12 24 -9 28 -15 24 -34 -4 -16 -2 -23 9 -23 10 0 14 -11 13
-37 -1 -31 3 -39 27 -51 33 -16 62 -8 82 22 20 31 10 53 -26 61 -25 6 -30 11
-27 33 3 23 8 27 39 30 36 3 37 4 26 32 -8 22 -8 32 2 44 16 19 72 21 89 4z
m107 -167 c-9 -40 -20 -46 -50 -27 -32 21 -32 36 -1 36 13 0 29 7 36 15 18 21
23 12 15 -24z m-257 3 c38 -19 41 -31 8 -40 -32 -8 -46 2 -46 32 0 28 -1 28
38 8z m-192 -78 c-7 -27 -29 -33 -55 -17 -13 8 -13 15 -2 49 l14 40 25 -23
c19 -18 23 -29 18 -49z m652 42 c18 -18 14 -46 -7 -58 -42 -22 -67 15 -34 52
19 21 25 22 41 6z m-98 -143 c105 -20 150 -39 150 -61 0 -23 -39 -84 -54 -84
-7 0 -23 -11 -36 -25 -32 -34 -60 -33 -60 3 0 36 -26 72 -52 72 -11 0 -35 -16
-54 -35 -37 -39 -64 -46 -64 -15 0 11 -4 20 -10 20 -5 0 -10 12 -10 27 0 37
-27 63 -65 63 -42 0 -59 -21 -52 -64 4 -28 1 -36 -18 -46 -27 -14 -45 -7 -45
20 0 25 -36 49 -63 42 -37 -8 -47 -23 -47 -64 0 -50 -25 -62 -52 -25 -14 19
-29 27 -49 27 -22 0 -29 5 -29 19 0 10 -7 21 -15 25 -8 3 -15 16 -15 29 0 20
10 29 48 45 26 11 74 25 107 31 33 6 71 13 85 15 51 9 318 -4 400 -19z m-216
-80 c3 -8 1 -26 -4 -40 -8 -20 -6 -25 6 -25 12 0 15 -6 9 -22 -17 -53 -17 -85
0 -101 35 -36 92 -2 82 48 -3 20 3 35 28 62 42 46 70 40 62 -11 -3 -19 -1 -38
5 -44 7 -7 6 -17 -1 -31 -10 -18 -8 -25 13 -46 29 -29 62 -32 94 -9 26 18 29
50 7 74 -22 24 -9 51 20 44 19 -5 24 -1 27 18 3 25 41 36 68 18 13 -8 10 -18
-16 -67 -18 -32 -38 -85 -45 -118 -7 -33 -13 -61 -14 -63 -1 -1 -32 9 -69 23
-178 67 -447 74 -614 15 -31 -11 -56 -19 -57 -17 0 1 -22 51 -48 112 -26 60
-43 113 -39 117 4 4 22 11 40 14 30 6 32 5 32 -24 0 -30 1 -31 35 -25 41 7 48
-12 15 -42 -11 -10 -20 -26 -20 -36 0 -21 50 -59 78 -59 28 0 65 49 59 78 -2
13 2 26 10 30 11 7 12 14 4 35 -12 31 -6 53 17 62 19 7 42 -19 42 -46 0 -10 5
-19 11 -21 7 -2 7 -12 0 -29 -14 -38 10 -69 53 -69 53 0 73 41 41 84 -20 26
-19 33 5 41 16 5 18 10 10 25 -6 10 -10 28 -10 39 0 16 6 21 29 21 16 0 31 -6
35 -15z m-84 -147 c0 -13 -8 -18 -30 -18 -33 0 -36 7 -18 45 11 24 12 24 30 9
10 -10 18 -25 18 -36z m150 -4 c0 -17 -6 -24 -20 -24 -15 0 -20 7 -20 28 0 16
3 32 7 35 11 12 33 -14 33 -39z m-356 3 c26 -19 13 -57 -18 -57 -35 0 -50 23
-34 49 15 24 27 26 52 8z m576 -34 c0 -18 -24 -27 -55 -19 -30 8 -31 20 -4 47
20 20 22 20 40 3 10 -9 19 -23 19 -31z m-153 -97 c84 -18 119 -31 107 -39 -27
-16 -201 -29 -338 -24 -147 5 -263 25 -238 41 55 34 346 48 469 22z m-495 -46
c2 -5 32 -17 68 -27 122 -33 547 -18 571 19 4 7 13 7 24 1 14 -8 9 -13 -32
-31 -144 -62 -525 -53 -630 14 -13 8 -23 19 -23 24 0 13 17 13 22 0z"/>
<path d="M4410 4464 c-28 -44 -26 -43 -188 -29 -72 7 -85 6 -102 -10 -11 -10
-20 -26 -20 -35 0 -12 -11 -19 -38 -24 -23 -3 -47 -16 -60 -31 -13 -15 -33
-25 -48 -25 -30 0 -60 -14 -91 -43 -26 -23 -31 -83 -11 -120 7 -12 15 -52 18
-88 5 -51 13 -75 36 -104 l29 -39 3 42 c3 37 6 42 27 42 13 0 35 -4 50 -10
l25 -10 -40 -36 c-23 -21 -45 -52 -51 -74 -9 -29 -23 -46 -58 -68 -87 -55
-111 -50 -111 24 0 42 -1 44 -31 44 -28 0 -30 2 -25 28 3 15 15 85 27 155 l21
128 -37 90 c-21 49 -41 89 -45 89 -4 0 -31 -39 -59 -86 l-51 -86 0 -154 c0
-122 -3 -162 -16 -186 -22 -43 -25 -215 -4 -228 8 -5 61 -10 116 -10 77 0 103
-3 107 -14 7 -17 -72 -28 -117 -15 -46 13 -77 11 -97 -7 -10 -9 -33 -23 -51
-32 -26 -13 -34 -24 -36 -50 -4 -35 19 -72 44 -72 11 0 10 -7 -3 -34 -31 -66
9 -84 67 -31 33 31 72 45 126 45 40 0 44 -2 44 -24 0 -13 6 -26 14 -29 9 -4
12 -14 9 -27 -4 -13 0 -25 7 -30 11 -7 11 -14 2 -35 -19 -42 -16 -48 28 -42
40 5 40 5 40 -28 0 -33 2 -34 43 -37 42 -3 42 -3 45 -45 3 -42 4 -43 40 -43
23 0 51 -9 74 -25 46 -31 112 -46 208 -48 64 -2 84 2 131 26 61 29 142 96 161
131 7 11 15 67 18 124 8 116 15 130 86 157 56 21 71 49 83 157 13 111 36 172
80 215 l36 36 -52 -5 c-52 -5 -53 -5 -53 22 0 52 -98 238 -119 225 -5 -2 -6
-60 -3 -127 4 -120 4 -125 -26 -189 -37 -83 -54 -96 -45 -37 3 24 8 93 9 153
2 82 8 126 24 172 20 56 21 67 10 133 -15 88 -48 131 -119 155 -47 15 -49 17
-39 43 8 20 7 40 -3 76 l-14 49 -25 -39z m5 -100 c-9 -14 -15 -27 -13 -29 2
-1 26 -10 55 -19 97 -32 126 -76 127 -191 0 -45 -6 -72 -26 -110 -20 -40 -24
-55 -16 -75 5 -14 10 -56 10 -93 0 -83 -17 -107 -92 -126 -44 -11 -55 -11 -97
5 -28 11 -75 19 -110 19 -58 0 -63 2 -63 22 0 15 13 31 39 49 69 45 91 139 46
192 -32 39 -55 93 -55 132 0 22 11 43 38 71 l37 40 70 -49 c71 -50 95 -82 95
-127 0 -16 6 -25 15 -25 22 0 19 45 -6 89 -22 40 -145 131 -176 131 -11 0 -25
-6 -31 -12 -17 -17 -32 6 -32 49 0 29 4 33 40 44 22 7 40 16 40 21 0 16 -58 8
-84 -13 -30 -24 -35 -71 -11 -107 14 -19 14 -24 -1 -46 -9 -15 -29 -28 -49
-32 -40 -7 -60 -46 -52 -102 8 -61 -30 -131 -47 -87 -9 25 -75 48 -123 42 -40
-4 -43 -3 -43 20 0 14 4 22 10 18 6 -4 26 -1 45 5 55 18 62 82 12 110 -25 14
-30 13 -56 -2 -35 -19 -41 -15 -41 27 0 38 21 59 75 74 53 14 53 14 57 -10 5
-36 29 -44 91 -30 71 15 81 37 25 51 -76 21 -94 30 -78 40 8 6 32 10 52 10 34
0 37 2 40 33 3 29 7 32 38 36 19 1 73 -3 119 -10 72 -11 87 -11 110 2 33 19
41 1 16 -37z m-696 -134 l22 -55 -25 -151 c-33 -191 -33 -184 4 -184 20 0 30
-5 30 -15 0 -10 -10 -15 -30 -15 -46 0 -78 -20 -90 -56 -18 -53 7 -69 59 -40
27 15 13 31 -19 21 -24 -8 -26 7 -4 29 23 24 72 20 106 -9 19 -17 37 -23 49
-20 25 8 24 2 -6 -54 l-25 -46 -98 3 c-53 2 -103 5 -109 7 -14 5 -17 56 -7
118 6 31 11 37 30 37 30 0 31 18 2 29 -14 5 -17 10 -10 15 8 5 12 57 12 173
l0 165 36 60 c20 33 40 56 44 51 4 -4 17 -33 29 -63z m249 -94 c3 -11 -4 -26
-14 -33 -21 -15 -34 -16 -53 -4 -12 8 -12 13 3 36 20 31 59 31 64 1z m227 -23
c8 -44 37 -104 59 -122 16 -14 19 -57 7 -101 -9 -34 -80 -81 -103 -69 -40 22
-75 10 -194 -64 -22 -13 -8 59 24 122 13 26 29 38 67 52 66 24 85 56 85 141 0
69 4 78 31 78 11 0 19 -11 24 -37z m534 -259 c1 -12 -10 -46 -23 -75 -14 -30
-26 -65 -28 -78 -5 -37 19 -36 31 2 6 18 25 47 42 63 l31 29 -20 -40 c-21 -43
-38 -116 -48 -208 -6 -63 -26 -90 -72 -102 -15 -4 -37 -15 -48 -26 l-21 -20
-31 30 c-17 17 -39 31 -50 31 -30 0 -46 27 -46 81 0 51 20 89 61 116 l21 14
-14 -57 c-10 -37 -12 -60 -6 -66 16 -16 32 1 32 33 0 19 12 42 35 67 19 21 48
67 65 103 26 56 30 75 31 154 l1 90 28 -60 c16 -33 29 -70 29 -81z m-571 -97
c2 -24 -4 -49 -16 -70 -21 -35 -37 -82 -47 -140 -5 -30 -14 -43 -41 -59 -28
-16 -33 -24 -28 -44 7 -28 -14 -41 -43 -26 -13 7 -26 6 -43 -3 -17 -9 -29 -10
-37 -3 -8 6 -18 6 -32 -1 -24 -13 -74 -15 -67 -2 9 13 -20 21 -77 21 -71 0
-119 -15 -151 -46 -30 -31 -33 -26 -10 18 17 33 12 45 -26 50 -20 2 -25 9 -25
33 0 22 5 31 20 33 11 2 30 13 43 25 20 19 28 20 71 11 30 -6 85 -7 142 -2
106 9 132 22 164 82 11 21 28 42 38 47 9 6 17 17 17 25 0 29 -55 -13 -80 -60
-16 -32 -31 -48 -49 -52 -14 -3 -34 -8 -44 -11 -31 -8 -30 26 3 88 17 33 29
63 26 66 -3 3 9 17 26 29 17 13 33 22 35 20 2 -1 -3 -21 -11 -44 -19 -54 -6
-61 43 -23 69 55 124 81 161 79 33 -3 35 -5 38 -41z m162 -47 c13 -8 13 -10
-2 -10 -47 0 -142 -122 -177 -228 -25 -73 -26 -130 -6 -198 16 -55 49 -91 112
-123 58 -29 84 -27 167 13 90 44 101 61 91 154 -6 60 -10 71 -28 76 -42 11
-68 6 -92 -19 -54 -53 -15 -125 60 -111 31 6 35 4 35 -13 0 -30 -30 -42 -76
-30 -50 14 -68 30 -84 78 -12 36 -10 42 15 89 17 32 36 53 51 56 38 10 119
-13 145 -40 22 -23 23 -33 21 -112 -1 -48 -7 -101 -13 -119 -13 -39 -71 -93
-141 -130 -46 -24 -64 -28 -133 -27 -91 2 -153 16 -186 43 -20 16 -21 21 -10
34 22 27 2 40 -26 17 -34 -26 -59 -25 -67 3 -10 36 -7 47 12 47 28 0 66 30 53
43 -7 7 -14 7 -24 -1 -8 -7 -31 -11 -53 -10 -21 1 -46 -2 -55 -6 -13 -6 -17 0
-21 27 l-4 35 84 -4 c65 -4 83 -2 80 8 -3 8 -33 15 -84 19 -75 5 -124 -3 -124
-23 0 -4 -4 -8 -9 -8 -5 0 -4 14 2 31 12 31 13 31 65 25 42 -5 54 -3 58 9 4
10 20 15 46 15 57 0 44 24 -15 28 -37 2 -47 0 -47 -13 0 -22 -21 -19 -27 5 -6
23 -23 27 -23 5 0 -10 -11 -15 -35 -15 -27 0 -35 4 -35 18 0 22 67 47 84 32 7
-5 21 -3 36 5 17 9 32 10 48 4 35 -14 76 14 69 47 -3 17 1 25 15 30 26 8 45
41 53 94 18 113 58 160 134 160 25 0 53 -5 61 -10z m156 -42 c-48 -47 -70
-104 -60 -156 6 -29 4 -31 -31 -38 -28 -5 -42 -16 -61 -46 -44 -69 -47 -87
-27 -147 15 -44 24 -56 58 -74 l40 -20 -30 -13 c-47 -20 -77 -16 -127 15 -66
42 -83 78 -83 177 0 72 4 87 37 155 20 40 54 91 76 112 35 34 45 38 118 47 43
5 90 13 104 19 14 5 26 10 28 10 1 1 -18 -18 -42 -41z m-6 -333 c0 -29 -4 -36
-25 -41 -49 -12 -68 13 -45 57 7 12 21 19 40 19 28 0 30 -3 30 -35z"/>
<path d="M7487 4358 c-19 -15 -47 -78 -47 -108 0 -17 -6 -20 -45 -20 -83 0
-118 -32 -130 -120 -14 -96 -47 -195 -105 -305 -71 -136 -75 -166 -27 -213 18
-17 46 -36 63 -42 31 -11 31 -11 18 -48 -7 -20 -13 -46 -14 -57 0 -40 38 -84
102 -116 102 -51 169 -102 236 -178 35 -39 84 -83 108 -97 41 -24 47 -25 76
-13 18 7 49 30 69 50 37 37 38 37 55 18 25 -27 85 -42 120 -28 16 5 58 38 94
73 81 77 137 116 220 151 75 32 145 78 160 105 15 29 12 52 -15 106 -29 58
-29 54 -11 54 8 0 28 16 45 35 39 45 41 94 6 157 -46 82 -76 179 -90 293 -17
138 -36 181 -84 195 -50 14 -77 12 -111 -5 -30 -15 -30 -15 -30 14 0 35 -38
84 -79 100 -22 10 -38 10 -67 1 -74 -21 -232 -24 -318 -6 -93 19 -176 21 -199
4z m193 -33 c98 -21 214 -18 347 10 27 6 37 3 63 -23 24 -25 30 -39 30 -74 0
-47 -19 -81 -99 -178 -25 -30 -47 -57 -48 -59 -2 -3 -22 14 -46 36 -65 63 -78
67 -121 38 -19 -13 -38 -20 -41 -15 -4 6 -19 10 -35 10 -20 0 -37 -10 -59 -37
l-31 -38 -26 30 c-75 87 -144 190 -144 216 0 34 17 81 33 91 19 12 106 9 177
-7z m607 -101 c28 -8 49 -71 58 -169 8 -91 36 -185 84 -284 44 -91 44 -118 -1
-156 -42 -35 -78 -32 -214 21 -66 25 -120 47 -122 48 -1 2 10 29 24 60 29 64
24 98 -15 111 -12 4 -18 12 -14 21 11 29 -7 64 -42 81 -20 9 -34 19 -33 22 18
36 146 216 165 231 26 20 68 25 110 14z m-824 -53 c16 -14 36 -39 44 -56 9
-16 32 -55 53 -86 l38 -56 -51 -34 c-49 -32 -52 -37 -52 -75 0 -22 -5 -47 -11
-55 -22 -27 -21 -44 3 -92 13 -27 23 -50 21 -52 -2 -2 -37 -15 -78 -29 -214
-76 -215 -76 -270 -29 -29 24 -32 31 -27 65 3 22 28 79 56 127 50 87 93 213
106 314 12 93 99 122 168 58z m442 -151 c30 -27 77 -61 105 -75 40 -20 50 -30
50 -51 0 -19 -8 -28 -35 -40 -49 -20 -63 -18 -101 16 -19 16 -51 34 -73 40
-37 10 -39 12 -45 61 -7 51 10 99 34 99 5 0 35 -22 65 -50z m-133 -15 c13 -47
1 -92 -26 -99 -25 -6 -76 -50 -92 -79 -9 -16 -15 -17 -60 -6 -27 6 -55 16 -61
22 -18 13 -16 42 2 57 13 11 14 10 9 -4 -8 -22 8 -20 59 5 68 35 117 71 117
85 0 19 -6 18 -53 -15 -49 -33 -107 -64 -107 -56 0 2 17 13 38 24 20 11 55 38
77 61 49 50 84 52 97 5z m109 -137 c41 -23 79 -85 79 -129 0 -14 -10 -45 -22
-69 -71 -137 -278 -85 -278 70 0 116 120 185 221 128z m226 -53 c3 -9 -7 -43
-21 -76 -15 -33 -33 -88 -40 -122 -11 -52 -16 -63 -35 -65 -24 -4 -71 32 -71
54 0 7 10 30 22 50 16 27 22 52 21 91 -1 48 1 55 25 68 36 19 91 19 99 0z
m-524 -22 c44 -16 47 -19 47 -53 0 -20 11 -59 25 -86 l25 -49 -28 -40 c-18
-26 -37 -41 -54 -43 -29 -4 -34 5 -42 74 l-6 49 15 -48 c14 -42 35 -57 35 -24
0 22 -51 172 -65 191 -27 36 -33 6 -9 -44 13 -27 24 -56 24 -62 0 -13 -59 100
-60 114 0 8 29 38 38 38 4 0 28 -8 55 -17z m638 -198 c138 -41 170 -60 188
-112 22 -62 4 -81 -142 -152 -104 -51 -136 -73 -211 -142 -96 -91 -126 -101
-180 -65 -41 27 -47 56 -40 196 l7 128 57 -5 c52 -5 59 -3 74 18 9 13 16 31
16 41 0 11 8 18 20 18 31 0 60 36 60 73 0 39 8 50 29 41 9 -4 64 -21 122 -39z
m-691 -9 c0 -67 35 -105 86 -92 17 5 24 2 24 -7 0 -8 9 -22 20 -32 16 -14 29
-16 73 -11 l54 7 6 -141 c5 -109 4 -149 -7 -174 -17 -41 -77 -80 -107 -71 -12
4 -67 53 -123 109 -93 95 -173 153 -271 197 -46 22 -62 58 -46 108 15 50 51
76 131 91 30 6 73 17 95 25 57 19 65 18 65 -9z m277 -26 c15 1 45 7 65 14 37
13 38 13 63 -20 15 -20 25 -44 23 -57 -3 -21 -6 -22 -94 -19 -49 2 -109 -1
-132 -6 -34 -8 -44 -7 -57 7 -20 23 -19 29 11 72 25 37 26 37 59 23 19 -8 47
-14 62 -14z"/>
<path d="M7628 4283 c-10 -2 -18 -11 -18 -18 0 -10 9 -12 38 -7 20 4 57 6 82
5 25 -1 83 -3 130 -5 83 -3 140 5 140 20 0 8 -343 12 -372 5z"/>
<path d="M8250 4076 c0 -4 11 -29 25 -56 14 -28 30 -83 36 -127 11 -83 20
-105 52 -140 19 -21 47 -31 47 -17 0 4 -13 21 -29 40 -20 23 -32 48 -36 81
-11 84 -25 137 -48 177 -19 35 -47 59 -47 42z"/>
<path d="M7317 4036 c-4 -39 -17 -75 -47 -127 -31 -52 -44 -88 -49 -130 -6
-46 -4 -59 6 -59 7 0 13 1 13 3 1 46 26 126 54 174 50 85 71 193 38 193 -5 0
-12 -24 -15 -54z"/>
<path d="M7842 4024 c4 -25 159 -127 172 -114 5 5 8 11 5 13 -4 4 -137 91
-167 111 -10 6 -13 3 -10 -10z"/>
<path d="M8057 3774 c-22 -44 -70 -195 -64 -201 12 -11 25 9 42 64 10 32 27
78 37 102 22 51 9 82 -15 35z"/>
<path d="M8235 3394 c-22 -20 -76 -54 -120 -77 -58 -31 -88 -53 -109 -84 -41
-59 -23 -75 21 -18 25 33 54 56 103 80 77 37 160 100 160 121 0 21 -11 17 -55
-22z"/>
<path d="M7320 3397 c0 -7 26 -24 58 -37 40 -17 74 -42 117 -86 33 -35 77 -70
97 -79 45 -18 48 -18 48 -2 0 6 -19 20 -43 29 -27 12 -54 34 -77 65 -27 36
-54 57 -110 85 -83 42 -90 44 -90 25z"/>
<path d="M7722 3513 c-13 -3 -22 -9 -20 -14 5 -14 228 -17 228 -3 0 18 -141
30 -208 17z"/>
<path d="M10795 9113 c-292 -178 -445 -275 -445 -282 0 -4 5 -12 12 -19 13
-13 26 -6 248 131 80 50 177 109 217 133 l72 43 -118 -237 c-65 -130 -134
-271 -154 -312 -35 -71 -47 -133 -29 -144 10 -6 510 291 562 333 26 22 32 32
24 41 -16 16 -106 -31 -339 -178 -104 -66 -191 -119 -193 -117 -2 1 21 47 50
101 29 55 100 202 159 329 86 187 104 233 95 247 -6 10 -13 18 -16 17 -3 0
-68 -39 -145 -86z"/>
<path d="M1019 9115 c-156 -50 -241 -263 -166 -417 108 -221 461 -300 602
-135 46 54 65 114 65 211 0 71 -4 87 -29 132 -43 74 -115 140 -198 181 -62 30
-86 37 -151 40 -49 2 -94 -3 -123 -12z m161 -46 c119 -19 215 -93 268 -207 21
-45 27 -72 27 -129 0 -63 -3 -76 -30 -115 -20 -28 -49 -53 -85 -71 -49 -25
-63 -28 -135 -25 -242 10 -425 239 -336 421 27 56 73 94 144 118 62 22 64 22
147 8z"/>
<path d="M11273 8602 c-16 -10 -6 -44 41 -142 20 -41 33 -77 28 -80 -4 -4 -61
-30 -127 -60 -222 -97 -455 -213 -455 -226 0 -36 10 -33 367 132 111 51 212
96 226 99 23 6 27 1 52 -65 41 -107 107 -171 75 -73 -14 42 -178 404 -189 415
-3 4 -12 4 -18 0z"/>
<path d="M621 8433 c-18 -9 -46 -34 -61 -55 -31 -42 -94 -204 -87 -222 3 -7
49 -31 103 -55 367 -162 509 -221 520 -217 36 14 6 37 -126 96 -158 71 -150
58 -103 158 35 76 69 94 158 89 39 -2 103 -10 143 -18 64 -11 74 -11 82 1 6 8
10 20 10 25 0 6 -61 19 -140 29 -125 17 -144 17 -184 4 l-44 -15 -7 43 c-8 53
-52 116 -98 137 -45 22 -122 21 -166 0z m173 -63 c63 -56 69 -165 16 -270
l-20 -39 -43 18 c-160 70 -213 94 -220 101 -10 8 28 113 57 157 30 45 63 62
123 63 44 0 58 -5 87 -30z"/>
<path d="M11223 7925 c-111 -31 -204 -100 -243 -179 -26 -54 -27 -171 -3 -242
24 -70 103 -147 173 -168 187 -56 425 35 490 186 68 158 10 326 -133 389 -66
29 -206 36 -284 14z m243 -40 c53 -15 114 -68 141 -118 25 -49 29 -139 8 -193
-36 -95 -104 -147 -250 -189 -82 -24 -95 -25 -150 -15 -141 28 -218 112 -218
240 0 69 25 121 86 177 104 96 258 135 383 98z"/>
<path d="M415 7561 c-137 -36 -207 -127 -246 -318 -33 -158 -66 -134 316 -229
181 -46 330 -82 331 -81 0 1 11 38 23 82 27 93 38 242 22 300 -26 97 -111 184
-221 226 -59 22 -176 33 -225 20z m196 -67 c139 -44 220 -147 220 -279 0 -85
-39 -228 -60 -222 -9 2 -138 34 -287 71 -149 38 -276 71 -283 75 -16 11 10
134 44 209 68 150 195 200 366 146z"/>
<path d="M11793 7018 c10 -46 30 -198 26 -202 -2 -2 -38 -9 -79 -15 -268 -38
-488 -72 -521 -82 -23 -7 -39 -18 -39 -27 0 -21 105 -12 380 33 241 39 266 41
273 21 3 -8 9 -47 12 -87 7 -73 25 -119 47 -119 13 0 7 59 -28 285 -34 221
-32 215 -56 215 -16 0 -19 -5 -15 -22z"/>
<path d="M80 6776 c0 -22 5 -24 88 -34 75 -10 238 -27 460 -48 l63 -6 -323
-161 c-177 -89 -327 -170 -333 -180 -19 -34 18 -41 370 -78 323 -34 311 -33
318 -16 7 18 0 21 -88 37 -59 10 -448 50 -492 50 -13 0 -23 3 -23 8 0 4 57 34
128 66 185 86 494 246 517 267 12 12 16 22 9 29 -12 12 -163 34 -414 59 -113
12 -222 23 -242 26 -35 5 -38 3 -38 -19z"/>
<path d="M11467 6399 c-97 -23 -185 -90 -221 -169 -29 -65 -28 -187 4 -253 83
-174 346 -232 550 -121 125 68 176 193 135 332 -30 101 -115 175 -237 208 -58
15 -172 17 -231 3z m280 -69 c61 -26 125 -91 143 -144 20 -61 9 -156 -23 -205
-33 -49 -101 -96 -171 -116 -74 -22 -194 -19 -263 6 -213 79 -231 344 -31 445
70 35 113 44 208 40 60 -2 100 -10 137 -26z"/>
<path d="M675 6068 c-16 -6 -136 -51 -265 -100 -129 -50 -263 -99 -297 -109
-56 -18 -93 -46 -93 -72 0 -4 20 -16 43 -26 56 -24 633 -221 648 -221 6 0 9
10 7 23 -3 19 -20 27 -111 58 -59 19 -113 41 -120 47 -8 9 -12 52 -12 144 l0
130 104 37 c95 34 141 64 141 92 0 11 -6 10 -45 -3z m-241 -194 c8 -64 8 -182
-1 -187 -5 -2 -84 21 -177 52 l-168 57 163 61 c90 33 167 61 170 62 4 1 9 -20
13 -45z"/>
<path d="M11240 5606 c0 -18 62 -32 369 -86 129 -22 237 -42 239 -45 2 -2 -13
-7 -34 -10 -106 -18 -323 -69 -456 -107 -130 -36 -149 -44 -146 -61 2 -14 78
-58 293 -168 160 -82 281 -149 270 -149 -19 0 -300 14 -506 25 -84 4 -98 3
-103 -11 -4 -9 -4 -19 -1 -23 3 -3 83 -9 178 -13 95 -4 248 -12 341 -18 177
-11 185 -9 186 31 0 18 -96 72 -393 225 l-198 101 63 12 c73 14 568 137 573
143 2 1 6 15 10 30 6 25 4 27 -32 33 -21 3 -114 22 -208 40 -341 68 -445 80
-445 51z"/>
<path d="M730 5148 c0 -13 9 -73 20 -133 32 -177 50 -156 -157 -189 -220 -36
-388 -70 -431 -88 -23 -9 -29 -17 -23 -27 8 -12 48 -7 247 28 132 23 282 49
334 58 52 8 98 18 101 21 3 4 -8 83 -25 177 -25 139 -34 170 -48 173 -13 3
-18 -3 -18 -20z"/>
<path d="M11136 4833 c-20 -21 -1 -47 72 -94 42 -28 89 -62 103 -76 l27 -25
-30 -111 c-16 -62 -32 -119 -35 -128 -5 -18 -61 -29 -142 -29 -60 0 -117 -16
-125 -35 -8 -22 92 -20 389 10 138 14 271 25 298 25 26 0 47 4 47 9 0 5 3 16
6 24 3 10 -35 43 -128 109 -238 170 -475 328 -482 321z m410 -324 c111 -75
134 -94 114 -96 -14 -1 -94 -7 -178 -14 -84 -6 -155 -9 -158 -6 -3 3 7 53 23
112 22 85 30 105 43 102 9 -2 79 -46 156 -98z"/>
<path d="M695 4552 c-158 -113 -340 -246 -388 -283 -28 -21 -55 -65 -46 -73 8
-8 225 -25 444 -36 121 -6 239 -12 263 -15 29 -3 42 -1 42 8 -1 32 -17 37
-139 41 -67 2 -126 7 -130 12 -7 7 -26 68 -77 245 -3 12 17 33 68 69 95 69
128 100 128 122 0 10 -3 18 -7 18 -5 0 -75 -49 -158 -108z m-36 -231 c17 -57
29 -106 27 -108 -6 -6 -356 9 -356 16 0 3 23 19 50 35 27 16 91 62 142 101 51
40 96 69 100 66 4 -3 20 -53 37 -110z"/>
<path d="M10956 4159 c-36 -28 -76 -110 -83 -168 -14 -121 69 -221 184 -221
75 0 97 12 189 100 46 44 94 82 108 86 84 21 166 -51 166 -146 0 -48 -11 -73
-53 -117 -26 -27 -28 -35 -17 -48 12 -14 16 -13 38 7 69 64 95 211 50 278 -39
57 -73 75 -136 74 -68 0 -123 -26 -173 -81 -78 -85 -106 -103 -160 -103 -72 0
-117 24 -140 74 -10 23 -19 51 -19 63 0 41 39 126 76 164 51 53 27 83 -30 38z"/>
<path d="M1007 4014 c-3 -3 10 -26 28 -50 47 -62 75 -142 75 -218 0 -114 -78
-230 -189 -279 -66 -29 -196 -35 -258 -12 -88 34 -183 162 -183 246 0 21 -7
45 -16 53 -28 29 -36 19 -29 -36 33 -240 218 -369 443 -308 197 53 293 177
280 359 -9 125 -109 287 -151 245z"/>
<path d="M10647 3776 c-10 -26 127 -176 161 -176 6 0 13 12 17 27 4 19 2 29
-10 36 -15 8 -104 78 -146 114 -14 12 -17 12 -22 -1z"/>
<path d="M1140 3314 c-300 -163 -410 -225 -410 -232 1 -34 22 -29 151 37 139
71 458 247 472 260 4 4 1 15 -5 24 -12 15 -32 6 -208 -89z"/>
<path d="M10524 3235 c-7 -18 -9 -17 240 -208 109 -83 208 -160 220 -170 20
-18 20 -19 1 -12 -11 3 -136 35 -279 71 -233 58 -356 77 -356 57 0 -14 34 -65
177 -263 139 -194 197 -280 189 -280 -2 0 -66 38 -143 84 -149 90 -373 216
-384 216 -4 0 -9 -7 -13 -15 -4 -11 14 -28 62 -58 86 -55 533 -310 536 -305 1
2 8 11 15 20 11 15 4 32 -62 130 -41 62 -126 185 -190 273 -64 88 -114 161
-113 162 1 2 26 -4 55 -13 29 -8 171 -44 315 -79 l261 -64 18 21 c9 11 17 23
17 27 0 4 -21 23 -46 41 -25 18 -121 92 -213 165 -159 126 -281 215 -295 215
-4 0 -9 -7 -12 -15z"/>
<path d="M1157 3008 c-18 -13 -15 -21 52 -123 39 -60 71 -111 71 -115 0 -3 -8
-10 -17 -16 -127 -82 -215 -135 -217 -132 -2 1 -20 32 -41 68 -76 129 -117
181 -131 169 -12 -10 -10 -18 7 -48 46 -76 162 -251 168 -251 3 0 101 62 218
138 117 75 246 158 288 184 68 43 75 50 65 68 -10 19 -12 19 -42 4 -28 -15
-219 -136 -244 -156 -10 -7 -62 64 -149 207 -9 14 -13 14 -28 3z"/>
<path d="M1504 2572 c-138 -103 -263 -197 -280 -209 -27 -19 -28 -22 -13 -38
15 -15 26 -9 145 76 164 117 424 319 424 329 0 4 -6 12 -13 18 -10 9 -72 -33
-263 -176z"/>
<path d="M10063 2573 c-4 -10 16 -58 52 -128 l59 -112 -79 -87 c-113 -125
-100 -120 -207 -74 -114 49 -140 55 -157 34 -8 -9 -12 -18 -10 -19 2 -2 158
-64 346 -139 297 -118 343 -133 356 -121 12 12 4 34 -65 166 -135 257 -269
497 -279 497 -5 0 -13 -8 -16 -17z m198 -397 c23 -44 57 -105 76 -134 38 -61
39 -64 16 -55 -31 11 -308 125 -311 128 -2 2 29 42 70 88 86 100 83 100 149
-27z"/>
<path d="M1808 2288 c-101 -88 -206 -183 -235 -210 -28 -26 -58 -48 -65 -48
-7 0 -42 36 -77 81 -41 52 -69 79 -80 77 -21 -5 -15 -36 13 -68 12 -14 65 -72
117 -130 52 -58 110 -124 128 -147 33 -43 71 -57 71 -27 0 8 -31 48 -70 89
-38 41 -70 78 -70 84 0 5 28 31 63 58 72 55 285 240 370 320 46 44 55 58 46
69 -6 8 -15 14 -19 14 -5 0 -91 -73 -192 -162z"/>
<path d="M2100 1983 c-85 -97 -185 -207 -222 -245 -71 -71 -88 -112 -46 -106
15 2 85 73 199 201 97 109 185 207 196 219 l21 20 -18 -88 c-10 -49 -37 -206
-60 -349 -34 -212 -40 -265 -30 -289 l11 -29 40 39 c62 59 392 422 411 452 24
36 23 42 -6 42 -15 0 -34 -12 -51 -32 -49 -60 -360 -406 -362 -404 -2 1 11 78
28 171 17 92 43 254 59 359 27 188 26 216 -4 216 -6 0 -81 -79 -166 -177z"/>
<path d="M9590 2050 c0 -16 5 -32 10 -35 20 -12 371 -417 366 -422 -2 -2 -13
0 -24 6 -11 6 -139 44 -284 85 -144 41 -283 82 -308 91 -43 16 -110 13 -110
-4 0 -9 83 -109 250 -302 173 -199 208 -235 221 -222 6 6 8 21 4 33 -4 12 -92
116 -195 233 -104 116 -187 213 -185 215 2 2 52 -12 112 -32 99 -33 457 -138
528 -155 34 -8 77 -1 82 14 1 6 -65 89 -148 185 -83 96 -178 207 -210 246 -33
39 -71 76 -84 82 -24 11 -25 10 -25 -18z"/>
<path d="M9042 1628 c-7 -7 -12 -15 -12 -20 0 -4 76 -112 168 -240 93 -128
181 -252 197 -275 15 -24 34 -43 42 -43 34 0 20 36 -62 157 -79 116 -312 433
-318 433 -2 0 -8 -5 -15 -12z"/>
<path d="M2793 1610 c-128 -27 -249 -147 -294 -291 -51 -163 4 -299 149 -367
212 -100 483 87 500 343 6 92 -15 157 -69 219 -69 78 -185 117 -286 96z m175
-59 c114 -58 158 -206 103 -344 -34 -86 -106 -174 -171 -211 -47 -26 -65 -31
-125 -31 -108 0 -195 57 -231 151 -53 138 55 358 210 430 65 31 160 33 214 5z"/>
<path d="M8706 1407 c-132 -78 -169 -107 -154 -123 14 -13 56 7 162 76 60 38
112 70 115 70 3 0 46 -69 96 -153 101 -171 238 -381 254 -391 6 -4 16 -4 21
-1 14 8 -33 93 -182 335 -63 102 -125 204 -138 228 -13 23 -26 42 -29 41 -3 0
-69 -37 -145 -82z"/>
<path d="M8431 1241 c-11 -7 -11 -29 1 -136 l14 -128 -114 -53 c-63 -30 -121
-54 -130 -54 -8 0 -54 39 -103 87 -80 78 -91 85 -111 76 -22 -10 -7 -26 237
-272 142 -143 264 -261 270 -261 35 1 36 11 15 256 -11 131 -27 294 -35 361
-8 67 -15 124 -15 127 0 8 -13 7 -29 -3z m29 -416 c1 -38 7 -112 14 -163 6
-51 9 -91 6 -90 -3 2 -59 59 -125 126 l-120 124 24 16 c13 10 60 33 105 53 95
43 94 43 96 -66z"/>
<path d="M3614 1030 c-60 -115 -69 -128 -83 -116 -53 46 -157 73 -235 62 -184
-28 -229 -262 -69 -364 48 -30 181 -88 187 -81 2 2 72 140 157 307 128 252
151 304 139 312 -8 5 -18 10 -22 10 -4 0 -37 -58 -74 -130z m-154 -120 c71
-36 71 -37 -4 -187 -75 -151 -70 -148 -161 -101 -79 40 -115 89 -115 158 0
129 147 198 280 130z"/>
<path d="M11527 745 c-74 -19 -135 -55 -185 -109 -140 -152 -129 -375 23 -515
76 -69 146 -95 255 -94 116 0 183 26 259 102 86 85 106 133 106 261 0 97 -2
110 -30 163 -77 153 -259 235 -428 192z m208 -89 c62 -28 128 -101 149 -163
38 -112 9 -240 -72 -315 -65 -61 -123 -82 -209 -76 -111 8 -198 70 -243 171
-25 56 -29 153 -10 213 51 157 237 239 385 170z"/>
<path d="M11518 573 l-38 -4 0 -185 0 -184 40 0 40 0 0 75 0 75 28 0 c51 0 76
-22 97 -85 20 -60 21 -60 63 -63 23 -2 42 0 42 5 0 29 -43 140 -61 159 -12 13
-18 24 -12 24 19 0 63 53 63 76 0 38 -22 74 -54 91 -31 16 -139 25 -208 16z
m131 -64 c39 -14 51 -51 26 -79 -13 -15 -31 -20 -67 -20 l-48 0 0 49 c0 62 21
73 89 50z"/>
<path d="M5244 731 c-40 -18 -62 -45 -45 -55 4 -3 31 4 59 14 38 15 52 16 52
7 0 -6 -20 -136 -45 -287 -25 -151 -46 -284 -48 -295 -1 -14 5 -21 20 -23 16
-2 22 3 27 25 8 41 106 618 106 626 0 14 -86 6 -126 -12z"/>
<path d="M6599 702 c-43 -28 -79 -76 -66 -89 4 -4 28 8 52 25 25 18 49 32 53
32 5 0 14 -44 20 -97 25 -206 62 -488 67 -500 2 -6 13 -9 25 -6 18 5 21 11 18
42 -3 20 -22 168 -44 329 -43 331 -38 319 -125 264z"/>
<path d="M5815 696 c-70 -17 -152 -64 -184 -105 -123 -157 -136 -423 -26 -520
91 -80 235 -58 309 46 25 36 30 54 34 121 6 98 -8 142 -56 182 -71 58 -208 62
-278 8 l-26 -21 7 24 c35 111 109 188 211 218 38 11 78 19 89 18 14 -1 20 4
20 18 0 25 -31 28 -100 11z m15 -289 c76 -50 97 -155 51 -250 -32 -66 -72 -92
-143 -92 -90 0 -135 47 -160 167 -10 50 -9 59 11 101 44 90 164 127 241 74z"/>
<path d="M6148 665 c-31 -19 -59 -42 -62 -51 -10 -27 24 -27 64 1 22 16 43 25
47 22 3 -4 8 -69 10 -144 2 -76 7 -212 11 -303 7 -157 8 -165 28 -168 19 -3
20 1 17 80 -1 46 -6 199 -9 341 -6 255 -6 257 -28 257 -12 0 -47 -16 -78 -35z"/>
</g>
</svg>
